Patient4_TMGait_0pt5_02_right_41_EMG.mot
version=1
nRows=26
nColumns=33
inDegrees=no
endheader
time	1LAddLong	2LGlutMax	3LGlutMed	4LIliopsoas	5LSemiMemb	6LBicFemLong	7LRecFem	8LVastMed	9LVastLat	10LGasMed	11LTibAnt	12lTibPost	13LPeroneusLong	14LSol	15LExtDigLong	16LFlexDigLong	17RAddLong	18RGlutMax	19RGlutMed	20RIliopsoas	21RSemiMemb	22RBicFemLong	23RRecFem	24RVastMed	25RVastLat	26RGasMed	27RTibAnt	28RTibPost	29RPeroneusLong	30RSol	31RExtDigLong	32RFlexDigLong
53.54	0.002747	0.037079	0.088654	-0.000916	-0.013123	0.11887	0.033569	-0.002747	0.065765	-0.071106	0.024872	-0.012512	-0.00473	-0.089417	0.016174	0.029297	0.1149	-0.029144	-0.47623	0.27557	-0.021362	0.015259	0.08606	-0.16052	-0.011444	0.003967	0.3067	-0.009308	-0.059052	-0.090942	0.011749	-0.002899
53.541	0.007935	0.044403	0.11475	0.003967	-0.027924	0.11307	-0.005493	-0.00473	0.071564	-0.097351	0.032501	0.005646	-0.028839	-0.19623	0.014496	0.02121	0.1442	-0.10101	-0.46936	0.27847	-0.023193	0.027008	0.097961	-0.17319	-0.00946	0.011444	0.48294	-0.002899	-0.075989	-0.089569	0.015564	-0.002747
53.542	0.002594	0.008392	0.1329	-0.002441	-0.066528	0.12665	0.010986	0.007324	0.040894	-0.11292	0.017242	0.00946	-0.022736	-0.10483	0.014191	0.011139	0.097351	-0.093689	-0.38879	0.18555	-0.015717	0.031586	0.079956	-0.18097	0.001984	0.014343	0.55786	-0.003357	-0.078278	-0.092773	0.015106	0.002594
53.543	-0.003967	0.017548	0.13062	0.013428	-0.09491	0.10239	0.034332	0.006256	0.020142	-0.10956	-0.000916	0.006866	-0.014648	-0.040436	0.025024	0.006104	0.033569	-0.045166	-0.27206	0.12528	-0.012512	0.062103	0.073242	-0.1059	0.02243	0.016785	0.46829	-0.003052	-0.064697	-0.065155	0.013885	0.00061
53.544	0.010071	0.047455	0.033112	0.016174	0.003052	0.001373	0.029907	0.003967	-0.004272	-0.099792	-0.02533	-0.012207	0.006409	-0.008545	0.012054	0.010223	-0.024872	-0.058289	-0.20477	0.074615	-0.00824	0.058899	0.12833	-0.1561	0.01358	0.021362	0.2005	-0.007324	-0.11322	-0.050507	0.01236	-0.004883
53.545	0.013733	0.044098	0.061035	0.020294	0.16739	-0.018616	0.032043	0.004272	-0.022278	-0.075836	-0.042419	-0.001526	0.053711	0.006409	0.011444	-0.002899	-0.066071	0.006256	-0.14938	0.04776	0.000305	0.070343	0.094757	-0.11658	0.001526	0.025482	-0.030518	-0.010529	-0.16342	-0.038147	0.012817	-0.002594
53.546	0.005341	0.056763	0.019226	0.003357	0.10773	-0.021667	0.031128	0.001221	-0.034485	-0.063934	-0.03006	-0.003662	0.033875	0.014801	0.02594	-0.001984	-0.098114	-0.039215	-0.045013	0.020447	-0.006866	0.062103	0.11795	-0.14435	0.009918	0.024567	-0.52414	-0.003357	-0.059357	-0.071716	0.014343	-0.003967
53.547	0.013885	0.042267	-0.042725	0.001373	0.031281	-0.010223	0.022125	0.006256	-0.034637	0.015869	-0.018768	0.003967	-0.002136	0.068817	0.012665	0.018921	-0.11932	-0.066223	-0.103	0.015259	-0.01236	0.060883	0.090179	-0.11017	0.027466	0.020142	-0.48859	-0.004425	-0.032959	-0.13199	0.013275	-0.000153
53.548	0.003204	0.04364	-0.14984	0.009308	0.005798	-0.057526	0.025024	0.006561	0.041199	0.080261	-0.013123	0.003204	0.076141	0.046082	0.015869	-0.009918	-0.11002	-0.014954	-0.26169	0.068207	-0.012207	0.055389	0.077209	-0.066833	0.015106	0.02121	-0.36819	-0.004578	0.049744	-0.20157	0.014648	-0.002899
53.549	-0.002747	0.031586	-0.10483	0.02182	-0.003662	-0.11551	0.043488	0.004883	-0.003662	0.1149	-0.014648	-0.000763	0.093231	-0.015717	0.001678	0.012512	-0.085907	0.004883	-0.026245	0.046844	-0.018158	0.038605	0.090027	-0.079041	0.016632	0.010071	-0.6662	-0.00473	0.18356	-0.20371	0.015564	-0.005646
53.55	0.011902	-0.024872	-0.056763	0.006866	-0.007629	-0.13458	0.027618	0.00351	-0.11505	0.13245	-0.02594	0.000305	0.094299	-0.10941	-0.00473	0.003357	-0.071411	0.009918	0.069427	-0.072327	-0.01236	0.009003	0.079498	-0.045471	0.009918	-0.014038	-0.46814	-0.006104	0.003815	-0.1178	0.015564	-0.003052
53.551	-0.004272	-0.026703	0.11307	0	0.007477	-0.10346	0.046692	-0.000153	-0.026855	0.1239	0.013885	-0.00351	0.087891	-0.10941	0.004425	-0.013428	-0.052338	-0.011597	0.036011	-0.23346	0.000305	0.007172	0.12314	-0.061951	-0.02533	-0.023193	-0.27313	-0.004883	-0.0914	-0.028229	0.013275	-0.009918
53.552	0.011444	-0.026398	0.13901	-0.002594	0.013733	-0.071259	0.04303	0.001221	0.025024	0.12772	0.028229	0.001984	0.062103	-0.080261	0.011292	-0.000153	-0.043182	-0.002289	0.28519	-0.271	0.020905	-0.0354	0.08316	-0.084534	-0.014038	-0.025482	-0.096588	-0.005798	-0.03479	0.092773	0.00885	-0.005188
53.553	-0.000763	-0.018616	0.224	0	-0.028534	0.10635	0.03952	0.007172	0.085754	0.082092	-0.019989	0.005646	0.032654	0.016632	-0.007782	-0.000153	-0.037842	-0.005493	0.088348	-0.18494	0.015411	-0.045776	0.098267	-0.060577	0.00351	-0.018158	0.025177	-0.003815	0.082245	0.083008	0.011902	0.001221
53.554	0.001984	-0.019989	0.12146	-0.00412	0.007324	0.23987	0.005798	0.00824	0.03418	0.052338	0.000458	0.007019	0.029602	0.038757	-0.013885	-0.003204	-0.033417	-0.006866	-0.032654	-0.067596	-0.048981	-0.032501	0.097809	-0.071869	-0.006714	-0.020142	-0.007935	-0.003815	0.094299	0.029449	0.01358	-0.007935
53.555	0.007477	-0.044708	0.024109	-0.001984	-0.003815	0.25757	0.025482	0.009308	0.009613	0.031433	0.005798	-0.001221	0.021973	-0.025482	-0.020447	-0.009155	-0.032501	-0.016022	-0.02533	-0.030518	-0.080414	-0.04776	0.083771	-0.098114	-0.00351	-0.023041	-0.052185	-0.003815	0.068817	0.10117	0.013123	-0.006104
53.556	0.011292	-0.068817	-0.068359	0.018158	0.016174	0.13214	0.001984	-0.00885	0.020905	-0.001068	0.016632	0	0.011292	-0.014801	-0.020905	0.002747	-0.037384	-0.00473	-0.088806	0.028534	-0.05127	-0.039978	0.093536	-0.13306	-0.006714	-0.024261	0.023956	-0.005493	0.043793	0.11063	0.009308	-0.009003
53.557	0.011444	-0.070801	-0.054779	0.016327	0.000305	0.24826	-0.007477	0.006409	0.023804	0.005341	0.018311	-0.000763	0.003204	-0.03952	0.001068	0.002441	-0.014954	-0.027161	-0.16602	0.05249	-0.05249	-0.067139	0.12802	-0.10605	0.001984	-0.029297	0.33966	-0.001068	-0.054474	0.052948	0.010376	-0.011444
53.558	0.00412	-0.06073	0.020142	0.017853	-0.014648	0.45197	0.012665	0.010071	0.009003	0.017395	-0.007782	0.001831	-0.006561	-0.006256	0.016632	-0.002136	-0.006409	-0.028076	-0.18356	0.097504	-0.055695	-0.048065	0.13382	-0.10605	-0.008392	-0.032196	0.58502	-0.005035	-0.00351	0.001831	0.010681	-0.011444
53.559	-0.002747	-0.04837	0.11108	0.007629	-0.033722	0.53848	0.018158	0.010681	0.00473	0.022583	-0.008698	0.006561	0.002441	0.003967	0.008698	0.005188	-0.009308	-0.016632	-0.13489	0.10269	-0.040894	-0.033875	0.13809	-0.15335	-0.010681	-0.022278	0.51483	-0.003967	0.11719	-0.039215	0.014648	-0.013733
53.56	0.013428	-0.033722	0.09613	0.001373	0.013733	0.41229	0.050964	0.008087	0.016785	0.019226	-0.001068	0.003052	0.027161	-0.009613	0.0177	-0.012207	-0.000305	-0.021057	-0.09201	0.1355	-0.036621	-0.029144	0.14069	-0.1326	-0.000458	-0.02121	0.2626	-0.006256	-0.19165	-0.077057	0.007629	-0.02121
53.561	0.00885	-0.047455	0.033722	0.000763	0.018005	0.25696	0.046844	0.002747	0.015411	0.033569	0.014038	-0.000458	0.056458	-0.022888	0.076599	0.00061	-0.005951	0.011597	0.13428	0.065918	-0.043335	-0.019379	0.099487	-0.17731	-0.001221	-0.015564	0.2005	-0.001831	-0.38895	-0.10422	0.007629	-0.007935
53.562	0.005798	-0.044861	0.010529	-0.002441	0.040588	0.086517	0.056915	0.006866	-0.024719	0.01297	0.018311	0.001221	0.021515	-0.043945	0.10117	-0.00351	-0.007935	-0.030212	0.22537	0.03479	-0.02533	-0.033264	0.076752	-0.1297	0.004272	-0.021362	0.016632	-0.004425	-0.12985	0.06958	0.012207	-0.014343
53.563	0.006561	-0.02533	0	0.00885	0.030518	-0.36957	0.07309	0.004272	-0.021057	-0.019073	0.04303	0.001831	-0.029907	-0.033875	0.14755	0.001831	0.015106	-0.037384	0.15808	0.073547	-0.029602	-0.01709	0.076599	-0.12192	0.005188	-0.027313	-0.094299	-0.008087	0.24979	0.14893	0.013275	-0.017548
53.564	0.000458	-0.0177	0.033722	0.005951	0.033264	-0.68146	0.083466	0.006714	-0.002136	0.010834	0.042267	0.002594	-0.011597	-0.015259	0.099945	-0.81787	0.052948	-0.089264	0.061035	0.044098	-0.030518	-0.027771	0.090179	-0.11704	0.008698	-0.020447	-0.1091	-0.007935	0.3714	0.10971	0.007172	-0.012512
53.565	0.000153	-0.032959	-0.030823	0.020599	0.044556	-0.9259	0.07431	0.012512	0.019989	-0.023193	0.021515	0.008087	0.002594	-0.00824	-0.067291	0.17105	0.074768	-0.072021	0.24506	-0.02121	-0.039063	-0.030212	0.050964	-0.091553	0.006866	-0.01297	-0.090332	-0.00885	-0.32394	0.063324	0.007935	-0.019379
